<svg width="569" height="88" viewBox="0 0 569 88" fill="none" xmlns="http://www.w3.org/2000/svg">
<path d="M10.2337 86H0.873751V1.99999H10.2337V35.84H11.6738C13.7538 32.24 16.6338 29.52 20.3138 27.68C23.9938 25.76 27.9938 24.8 32.3138 24.8C35.9938 24.8 39.4738 25.48 42.7538 26.84C46.0338 28.2 48.9138 30.16 51.3938 32.72C53.9538 35.28 55.9538 38.44 57.3938 42.2C58.9138 45.96 59.6738 50.24 59.6738 55.04V57.44C59.6738 62.32 58.9538 66.64 57.5138 70.4C56.0738 74.16 54.0738 77.32 51.5138 79.88C49.0338 82.44 46.1138 84.4 42.7538 85.76C39.3938 87.04 35.8338 87.68 32.0738 87.68C30.1538 87.68 28.1938 87.44 26.1938 86.96C24.1938 86.56 22.2738 85.92 20.4338 85.04C18.6738 84.08 17.0338 82.96 15.5138 81.68C13.9938 80.32 12.7138 78.72 11.6738 76.88H10.2337V86ZM30.1538 78.8C33.0338 78.8 35.6738 78.32 38.0738 77.36C40.4738 76.32 42.5538 74.88 44.3138 73.04C46.1538 71.2 47.5538 68.96 48.5138 66.32C49.5538 63.68 50.0738 60.72 50.0738 57.44V55.04C50.0738 51.84 49.5538 48.96 48.5138 46.4C47.5538 43.76 46.1538 41.52 44.3138 39.68C42.5538 37.76 40.4338 36.28 37.9538 35.24C35.5538 34.2 32.9538 33.68 30.1538 33.68C27.3538 33.68 24.7538 34.24 22.3538 35.36C19.9538 36.4 17.8338 37.88 15.9938 39.8C14.2338 41.72 12.8338 44.04 11.7938 46.76C10.7538 49.4 10.2337 52.32 10.2337 55.52V56.96C10.2337 60.24 10.7538 63.24 11.7938 65.96C12.8338 68.6 14.2338 70.88 15.9938 72.8C17.8338 74.72 19.9538 76.2 22.3538 77.24C24.7538 78.28 27.3538 78.8 30.1538 78.8ZM83.3503 59.12C83.5903 65.04 85.4303 69.8 88.8703 73.4C92.3103 77 97.1103 78.8 103.27 78.8C106.07 78.8 108.51 78.48 110.59 77.84C112.67 77.2 114.43 76.32 115.87 75.2C117.39 74.08 118.59 72.8 119.47 71.36C120.43 69.84 121.19 68.24 121.75 66.56L130.63 68.96C128.95 74.48 125.83 79 121.27 82.52C116.79 85.96 110.71 87.68 103.03 87.68C98.7903 87.68 94.8703 86.96 91.2703 85.52C87.7503 84 84.7103 81.88 82.1503 79.16C79.5903 76.44 77.5903 73.2 76.1503 69.44C74.7103 65.68 73.9903 61.52 73.9903 56.96V54.08C73.9903 49.92 74.7103 46.04 76.1503 42.44C77.6703 38.84 79.7503 35.76 82.3903 33.2C85.0303 30.56 88.1103 28.52 91.6303 27.08C95.2303 25.56 99.1103 24.8 103.27 24.8C108.15 24.8 112.35 25.72 115.87 27.56C119.47 29.32 122.39 31.52 124.63 34.16C126.95 36.8 128.63 39.68 129.67 42.8C130.79 45.92 131.35 48.8 131.35 51.44V59.12H83.3503ZM103.27 33.68C100.63 33.68 98.1503 34.12 95.8303 35C93.5903 35.8 91.5903 36.96 89.8303 38.48C88.1503 40 86.7503 41.8 85.6303 43.88C84.5903 45.88 83.9103 48.08 83.5903 50.48H121.99C121.83 47.92 121.19 45.6 120.07 43.52C119.03 41.44 117.63 39.68 115.87 38.24C114.19 36.8 112.23 35.68 109.99 34.88C107.83 34.08 105.59 33.68 103.27 33.68ZM159.347 86H149.987V26.48H159.347V36.56H160.787C164.467 28.72 170.867 24.8 179.987 24.8C186.867 24.8 192.347 26.96 196.427 31.28C200.507 35.52 202.547 41.92 202.547 50.48V86H193.187V52.4C193.187 46.16 191.787 41.48 188.987 38.36C186.187 35.24 182.387 33.68 177.587 33.68C171.907 33.68 167.427 35.64 164.147 39.56C160.947 43.4 159.347 48.56 159.347 55.04V86ZM231.743 50.48H267.743V59.12H231.743V50.48ZM354.18 86H344.82V43.28C344.82 40.48 344.18 38.2 342.9 36.44C341.62 34.6 339.58 33.68 336.78 33.68C334.14 33.68 331.98 34.68 330.3 36.68C328.7 38.6 327.9 41.6 327.9 45.68V86H318.54V42.8C318.54 40.16 317.82 38 316.38 36.32C314.94 34.56 313.02 33.68 310.62 33.68C307.74 33.68 305.5 34.72 303.9 36.8C302.38 38.88 301.62 41.6 301.62 44.96V86H292.26V26.48H301.62V32.96H303.06C304.1 30.16 305.62 28.12 307.62 26.84C309.62 25.48 311.98 24.8 314.7 24.8C317.58 24.8 319.94 25.56 321.78 27.08C323.7 28.6 325.02 30.56 325.74 32.96H327.18C329.9 27.52 334.22 24.8 340.14 24.8C344.62 24.8 348.06 26.24 350.46 29.12C352.94 31.92 354.18 35.6 354.18 40.16V86ZM388.897 8.71999C388.897 6.39999 389.697 4.44 391.297 2.84C392.977 1.16 394.977 0.319994 397.297 0.319994C399.617 0.319994 401.577 1.16 403.177 2.84C404.857 4.44 405.697 6.39999 405.697 8.71999C405.697 11.04 404.857 13.04 403.177 14.72C401.577 16.32 399.617 17.12 397.297 17.12C394.977 17.12 392.977 16.32 391.297 14.72C389.697 13.04 388.897 11.04 388.897 8.71999ZM371.857 77.36H392.737V35.12H374.017V26.48H402.097V77.36H421.537V86H371.857V77.36ZM453.253 86H443.893V26.48H453.253V36.56H454.693C458.373 28.72 464.773 24.8 473.893 24.8C480.773 24.8 486.253 26.96 490.333 31.28C494.413 35.52 496.453 41.92 496.453 50.48V86H487.093V52.4C487.093 46.16 485.693 41.48 482.893 38.36C480.093 35.24 476.293 33.68 471.493 33.68C465.813 33.68 461.333 35.64 458.053 39.56C454.853 43.4 453.253 48.56 453.253 55.04V86ZM535.85 8.71999C535.85 6.39999 536.65 4.44 538.25 2.84C539.93 1.16 541.93 0.319994 544.25 0.319994C546.57 0.319994 548.53 1.16 550.13 2.84C551.81 4.44 552.65 6.39999 552.65 8.71999C552.65 11.04 551.81 13.04 550.13 14.72C548.53 16.32 546.57 17.12 544.25 17.12C541.93 17.12 539.93 16.32 538.25 14.72C536.65 13.04 535.85 11.04 535.85 8.71999ZM518.81 77.36H539.69V35.12H520.97V26.48H549.05V77.36H568.49V86H518.81V77.36Z" fill="white"/>
</svg>
