<svg width="3096" height="572" viewBox="0 0 3096 572" fill="none" xmlns="http://www.w3.org/2000/svg">
<path d="M609.44 483H568.88V119H609.44V265.64H615.68C624.693 250.04 637.173 238.253 653.12 230.28C669.067 221.96 686.4 217.8 705.12 217.8C721.067 217.8 736.147 220.747 750.36 226.64C764.573 232.533 777.053 241.027 787.8 252.12C798.893 263.213 807.56 276.907 813.8 293.2C820.387 309.493 823.68 328.04 823.68 348.84V359.24C823.68 380.387 820.56 399.107 814.32 415.4C808.08 431.693 799.413 445.387 788.32 456.48C777.573 467.573 764.92 476.067 750.36 481.96C735.8 487.507 720.373 490.28 704.08 490.28C695.76 490.28 687.267 489.24 678.6 487.16C669.933 485.427 661.613 482.653 653.64 478.84C646.013 474.68 638.907 469.827 632.32 464.28C625.733 458.387 620.187 451.453 615.68 443.48H609.44V483ZM695.76 451.8C708.24 451.8 719.68 449.72 730.08 445.56C740.48 441.053 749.493 434.813 757.12 426.84C765.093 418.867 771.16 409.16 775.32 397.72C779.827 386.28 782.08 373.453 782.08 359.24V348.84C782.08 334.973 779.827 322.493 775.32 311.4C771.16 299.96 765.093 290.253 757.12 282.28C749.493 273.96 740.307 267.547 729.56 263.04C719.16 258.533 707.893 256.28 695.76 256.28C683.627 256.28 672.36 258.707 661.96 263.56C651.56 268.067 642.373 274.48 634.4 282.8C626.773 291.12 620.707 301.173 616.2 312.96C611.693 324.4 609.44 337.053 609.44 350.92V357.16C609.44 371.373 611.693 384.373 616.2 396.16C620.707 407.6 626.773 417.48 634.4 425.8C642.373 434.12 651.56 440.533 661.96 445.04C672.36 449.547 683.627 451.8 695.76 451.8ZM926.278 366.52C927.318 392.173 935.292 412.8 950.198 428.4C965.105 444 985.905 451.8 1012.6 451.8C1024.73 451.8 1035.31 450.413 1044.32 447.64C1053.33 444.867 1060.96 441.053 1067.2 436.2C1073.79 431.347 1078.99 425.8 1082.8 419.56C1086.96 412.973 1090.25 406.04 1092.68 398.76L1131.16 409.16C1123.88 433.08 1110.36 452.667 1090.6 467.92C1071.19 482.827 1044.84 490.28 1011.56 490.28C993.185 490.28 976.198 487.16 960.598 480.92C945.345 474.333 932.172 465.147 921.078 453.36C909.985 441.573 901.318 427.533 895.078 411.24C888.838 394.947 885.718 376.92 885.718 357.16V344.68C885.718 326.653 888.838 309.84 895.078 294.24C901.665 278.64 910.678 265.293 922.118 254.2C933.558 242.76 946.905 233.92 962.158 227.68C977.758 221.093 994.572 217.8 1012.6 217.8C1033.75 217.8 1051.95 221.787 1067.2 229.76C1082.8 237.387 1095.45 246.92 1105.16 258.36C1115.21 269.8 1122.49 282.28 1127 295.8C1131.85 309.32 1134.28 321.8 1134.28 333.24V366.52H926.278ZM1012.6 256.28C1001.16 256.28 990.412 258.187 980.358 262C970.652 265.467 961.985 270.493 954.358 277.08C947.078 283.667 941.012 291.467 936.158 300.48C931.652 309.147 928.705 318.68 927.318 329.08H1093.72C1093.03 317.987 1090.25 307.933 1085.4 298.92C1080.89 289.907 1074.83 282.28 1067.2 276.04C1059.92 269.8 1051.43 264.947 1041.72 261.48C1032.36 258.013 1022.65 256.28 1012.6 256.28ZM1255.6 483H1215.04V225.08H1255.6V268.76H1261.84C1277.78 234.787 1305.52 217.8 1345.04 217.8C1374.85 217.8 1398.6 227.16 1416.28 245.88C1433.96 264.253 1442.8 291.987 1442.8 329.08V483H1402.24V337.4C1402.24 310.36 1396.17 290.08 1384.04 276.56C1371.9 263.04 1355.44 256.28 1334.64 256.28C1310.02 256.28 1290.61 264.773 1276.4 281.76C1262.53 298.4 1255.6 320.76 1255.6 348.84V483ZM1532.92 329.08H1688.92V366.52H1532.92V329.08ZM2027.07 483H1986.51V297.88C1986.51 285.747 1983.74 275.867 1978.19 268.24C1972.65 260.267 1963.81 256.28 1951.67 256.28C1940.23 256.28 1930.87 260.613 1923.59 269.28C1916.66 277.6 1913.19 290.6 1913.19 308.28V483H1872.63V295.8C1872.63 284.36 1869.51 275 1863.27 267.72C1857.03 260.093 1848.71 256.28 1838.31 256.28C1825.83 256.28 1816.13 260.787 1809.19 269.8C1802.61 278.813 1799.31 290.6 1799.31 305.16V483H1758.75V225.08H1799.31V253.16H1805.55C1810.06 241.027 1816.65 232.187 1825.31 226.64C1833.98 220.747 1844.21 217.8 1855.99 217.8C1868.47 217.8 1878.7 221.093 1886.67 227.68C1894.99 234.267 1900.71 242.76 1903.83 253.16H1910.07C1921.86 229.587 1940.58 217.8 1966.23 217.8C1985.65 217.8 2000.55 224.04 2010.95 236.52C2021.7 248.653 2027.07 264.6 2027.07 284.36V483ZM2177.51 148.12C2177.51 138.067 2180.98 129.573 2187.91 122.64C2195.19 115.36 2203.86 111.72 2213.91 111.72C2223.97 111.72 2232.46 115.36 2239.39 122.64C2246.67 129.573 2250.31 138.067 2250.31 148.12C2250.31 158.173 2246.67 166.84 2239.39 174.12C2232.46 181.053 2223.97 184.52 2213.91 184.52C2203.86 184.52 2195.19 181.053 2187.91 174.12C2180.98 166.84 2177.51 158.173 2177.51 148.12ZM2103.67 445.56H2194.15V262.52H2113.03V225.08H2234.71V445.56H2318.95V483H2103.67V445.56ZM2456.39 483H2415.83V225.08H2456.39V268.76H2462.63C2478.58 234.787 2506.31 217.8 2545.83 217.8C2575.64 217.8 2599.39 227.16 2617.07 245.88C2634.75 264.253 2643.59 291.987 2643.59 329.08V483H2603.03V337.4C2603.03 310.36 2596.96 290.08 2584.83 276.56C2572.7 263.04 2556.23 256.28 2535.43 256.28C2510.82 256.28 2491.4 264.773 2477.19 281.76C2463.32 298.4 2456.39 320.76 2456.39 348.84V483ZM2814.31 148.12C2814.31 138.067 2817.78 129.573 2824.71 122.64C2831.99 115.36 2840.66 111.72 2850.71 111.72C2860.76 111.72 2869.26 115.36 2876.19 122.64C2883.47 129.573 2887.11 138.067 2887.11 148.12C2887.11 158.173 2883.47 166.84 2876.19 174.12C2869.26 181.053 2860.76 184.52 2850.71 184.52C2840.66 184.52 2831.99 181.053 2824.71 174.12C2817.78 166.84 2814.31 158.173 2814.31 148.12ZM2740.47 445.56H2830.95V262.52H2749.83V225.08H2871.51V445.56H2955.75V483H2740.47V445.56Z" fill="black"/>
<rect y="84" width="430" height="430" rx="78" fill="black"/>
<g clip-path="url(#clip0_7_21)">
<path d="M148.851 245.036H90.739L68.3882 265.298M148.851 245.036V303.571L128.736 326.084M148.851 245.036L128.736 265.298M68.3882 265.298H128.736M68.3882 265.298V326.084H128.736M128.736 326.084V265.298" stroke="#FFB800" stroke-width="13" stroke-linecap="round" stroke-linejoin="round"/>
</g>
<g clip-path="url(#clip1_7_21)">
<path d="M275.997 291.866H343.689L369.724 315.468M275.997 291.866V360.05L299.429 386.274M275.997 291.866L299.429 315.468M369.724 315.468H299.429M369.724 315.468V386.274H299.429M299.429 386.274V315.468" stroke="#FF1000" stroke-width="15" stroke-linecap="round" stroke-linejoin="round"/>
</g>
<g clip-path="url(#clip2_7_21)">
<path d="M224 145H275.128L277 158.556M224 145V194.063L225.5 212M224 145L225.5 158.556M277 158.556V212H225.5M277 158.556H260.288H225.5M225.5 212V158.556" stroke="#FFF500" stroke-width="11" stroke-linecap="round" stroke-linejoin="round"/>
</g>
<path d="M213.477 395.971L170.791 447.983C169.748 449.283 170.172 449.875 171.739 449.306L212.529 422.486C214.095 421.916 216.632 421.922 218.196 422.498L258.392 449.293C259.955 449.87 260.384 449.277 259.35 447.971L217.237 395.983C216.203 394.677 214.519 394.671 213.477 395.971Z" fill="white"/>
<path d="M213.257 445.495L170.571 497.507C169.529 498.806 169.953 499.398 171.519 498.829L212.31 472.01C213.875 471.44 216.413 471.445 217.976 472.022L258.172 498.817C259.736 499.394 260.165 498.801 259.13 497.495L217.017 445.507C215.983 444.201 214.299 444.195 213.257 445.495Z" fill="white"/>
<defs>
<clipPath id="clip0_7_21">
<rect width="91" height="91" fill="white" transform="translate(63 240)"/>
</clipPath>
<clipPath id="clip1_7_21">
<rect width="106" height="106" fill="white" transform="matrix(-1 0 0 1 376 286)"/>
</clipPath>
<clipPath id="clip2_7_21">
<rect width="87" height="87" fill="white" transform="matrix(-1 0 0 1 304 130)"/>
</clipPath>
</defs>
</svg>
