<svg width="430" height="430" viewBox="0 0 430 430" fill="none" xmlns="http://www.w3.org/2000/svg">
<rect width="430" height="430" rx="78" fill="black"/>
<g clip-path="url(#clip0_7_20)">
<path d="M148.851 161.036H90.739L68.3882 181.298M148.851 161.036V219.571L128.736 242.084M148.851 161.036L128.736 181.298M68.3882 181.298H128.736M68.3882 181.298V242.084H128.736M128.736 242.084V181.298" stroke="#FFB800" stroke-width="13" stroke-linecap="round" stroke-linejoin="round"/>
</g>
<g clip-path="url(#clip1_7_20)">
<path d="M275.997 207.866H343.689L369.724 231.468M275.997 207.866V276.05L299.429 302.274M275.997 207.866L299.429 231.468M369.724 231.468H299.429M369.724 231.468V302.274H299.429M299.429 302.274V231.468" stroke="#FF1000" stroke-width="15" stroke-linecap="round" stroke-linejoin="round"/>
</g>
<g clip-path="url(#clip2_7_20)">
<path d="M224 61H275.128L277 74.5564M224 61V110.063L225.5 128M224 61L225.5 74.5564M277 74.5564V128H225.5M277 74.5564H260.288H225.5M225.5 128V74.5564" stroke="#FFF500" stroke-width="11" stroke-linecap="round" stroke-linejoin="round"/>
</g>
<path d="M213.477 311.971L170.791 363.983C169.748 365.283 170.172 365.875 171.739 365.306L212.529 338.486C214.095 337.916 216.632 337.922 218.196 338.498L258.392 365.293C259.955 365.87 260.384 365.277 259.35 363.971L217.237 311.983C216.203 310.677 214.519 310.671 213.477 311.971Z" fill="white"/>
<path d="M213.257 361.495L170.571 413.507C169.529 414.806 169.953 415.398 171.519 414.829L212.31 388.01C213.875 387.44 216.413 387.445 217.976 388.022L258.172 414.817C259.736 415.394 260.165 414.801 259.13 413.495L217.017 361.507C215.983 360.201 214.299 360.195 213.257 361.495Z" fill="white"/>
<defs>
<clipPath id="clip0_7_20">
<rect width="91" height="91" fill="white" transform="translate(63 156)"/>
</clipPath>
<clipPath id="clip1_7_20">
<rect width="106" height="106" fill="white" transform="matrix(-1 0 0 1 376 202)"/>
</clipPath>
<clipPath id="clip2_7_20">
<rect width="87" height="87" fill="white" transform="matrix(-1 0 0 1 304 46)"/>
</clipPath>
</defs>
</svg>
