<svg width="260" height="260" viewBox="0 0 260 260" fill="none" xmlns="http://www.w3.org/2000/svg">
<rect width="260" height="260" fill="#EBEBEB"/>
<path d="M24.7 107H16.9V37H24.7V65.2H25.9C27.6333 62.2 30.0333 59.9333 33.1 58.4C36.1667 56.8 39.5 56 43.1 56C46.1667 56 49.0667 56.5667 51.8 57.7C54.5333 58.8333 56.9333 60.4667 59 62.6C61.1333 64.7333 62.8 67.3667 64 70.5C65.2667 73.6333 65.9 77.2 65.9 81.2V83.2C65.9 87.2667 65.3 90.8667 64.1 94C62.9 97.1333 61.2333 99.7667 59.1 101.9C57.0333 104.033 54.6 105.667 51.8 106.8C49 107.867 46.0333 108.4 42.9 108.4C41.3 108.4 39.6667 108.2 38 107.8C36.3333 107.467 34.7333 106.933 33.2 106.2C31.7333 105.4 30.3667 104.467 29.1 103.4C27.8333 102.267 26.7667 100.933 25.9 99.4H24.7V107ZM41.3 101C43.7 101 45.9 100.6 47.9 99.8C49.9 98.9333 51.6333 97.7333 53.1 96.2C54.6333 94.6667 55.8 92.8 56.6 90.6C57.4667 88.4 57.9 85.9333 57.9 83.2V81.2C57.9 78.5333 57.4667 76.1333 56.6 74C55.8 71.8 54.6333 69.9333 53.1 68.4C51.6333 66.8 49.8667 65.5667 47.8 64.7C45.8 63.8333 43.6333 63.4 41.3 63.4C38.9667 63.4 36.8 63.8667 34.8 64.8C32.8 65.6667 31.0333 66.9 29.5 68.5C28.0333 70.1 26.8667 72.0333 26 74.3C25.1333 76.5 24.7 78.9333 24.7 81.6V82.8C24.7 85.5333 25.1333 88.0333 26 90.3C26.8667 92.5 28.0333 94.4 29.5 96C31.0333 97.6 32.8 98.8333 34.8 99.7C36.8 100.567 38.9667 101 41.3 101ZM85.6305 84.6C85.8305 89.5333 87.3638 93.5 90.2305 96.5C93.0971 99.5 97.0971 101 102.23 101C104.564 101 106.597 100.733 108.33 100.2C110.064 99.6667 111.53 98.9333 112.73 98C113.997 97.0667 114.997 96 115.73 94.8C116.53 93.5333 117.164 92.2 117.63 90.8L125.03 92.8C123.63 97.4 121.03 101.167 117.23 104.1C113.497 106.967 108.43 108.4 102.03 108.4C98.4971 108.4 95.2305 107.8 92.2305 106.6C89.2971 105.333 86.7638 103.567 84.6305 101.3C82.4971 99.0333 80.8305 96.3333 79.6305 93.2C78.4305 90.0667 77.8305 86.6 77.8305 82.8V80.4C77.8305 76.9333 78.4305 73.7 79.6305 70.7C80.8971 67.7 82.6305 65.1333 84.8305 63C87.0305 60.8 89.5971 59.1 92.5305 57.9C95.5305 56.6333 98.7638 56 102.23 56C106.297 56 109.797 56.7667 112.73 58.3C115.73 59.7667 118.164 61.6 120.03 63.8C121.964 66 123.364 68.4 124.23 71C125.164 73.6 125.63 76 125.63 78.2V84.6H85.6305ZM102.23 63.4C100.03 63.4 97.9638 63.7667 96.0305 64.5C94.1638 65.1667 92.4971 66.1333 91.0305 67.4C89.6305 68.6667 88.4638 70.1667 87.5305 71.9C86.6638 73.5667 86.0971 75.4 85.8305 77.4H117.83C117.697 75.2667 117.164 73.3333 116.23 71.6C115.364 69.8667 114.197 68.4 112.73 67.2C111.33 66 109.697 65.0667 107.83 64.4C106.03 63.7333 104.164 63.4 102.23 63.4ZM148.961 107H141.161V57.4H148.961V65.8H150.161C153.228 59.2667 158.561 56 166.161 56C171.894 56 176.461 57.8 179.861 61.4C183.261 64.9333 184.961 70.2667 184.961 77.4V107H177.161V79C177.161 73.8 175.994 69.9 173.661 67.3C171.328 64.7 168.161 63.4 164.161 63.4C159.428 63.4 155.694 65.0333 152.961 68.3C150.294 71.5 148.961 75.8 148.961 81.2V107ZM66.4 229H58.6V193.4C58.6 191.067 58.0667 189.167 57 187.7C55.9333 186.167 54.2333 185.4 51.9 185.4C49.7 185.4 47.9 186.233 46.5 187.9C45.1667 189.5 44.5 192 44.5 195.4V229H36.7V193C36.7 190.8 36.1 189 34.9 187.6C33.7 186.133 32.1 185.4 30.1 185.4C27.7 185.4 25.8333 186.267 24.5 188C23.2333 189.733 22.6 192 22.6 194.8V229H14.8V179.4H22.6V184.8H23.8C24.6667 182.467 25.9333 180.767 27.6 179.7C29.2667 178.567 31.2333 178 33.5 178C35.9 178 37.8667 178.633 39.4 179.9C41 181.167 42.1 182.8 42.7 184.8H43.9C46.1667 180.267 49.7667 178 54.7 178C58.4333 178 61.3 179.2 63.3 181.6C65.3667 183.933 66.4 187 66.4 190.8V229ZM95.3305 164.6C95.3305 162.667 95.9971 161.033 97.3305 159.7C98.7305 158.3 100.397 157.6 102.33 157.6C104.264 157.6 105.897 158.3 107.23 159.7C108.63 161.033 109.33 162.667 109.33 164.6C109.33 166.533 108.63 168.2 107.23 169.6C105.897 170.933 104.264 171.6 102.33 171.6C100.397 171.6 98.7305 170.933 97.3305 169.6C95.9971 168.2 95.3305 166.533 95.3305 164.6ZM81.1305 221.8H98.5305V186.6H82.9305V179.4H106.33V221.8H122.53V229H81.1305V221.8ZM148.961 229H141.161V179.4H148.961V187.8H150.161C153.228 181.267 158.561 178 166.161 178C171.894 178 176.461 179.8 179.861 183.4C183.261 186.933 184.961 192.267 184.961 199.4V229H177.161V201C177.161 195.8 175.994 191.9 173.661 189.3C171.328 186.7 168.161 185.4 164.161 185.4C159.428 185.4 155.694 187.033 152.961 190.3C150.294 193.5 148.961 197.8 148.961 203.2V229ZM217.791 164.6C217.791 162.667 218.458 161.033 219.791 159.7C221.191 158.3 222.858 157.6 224.791 157.6C226.725 157.6 228.358 158.3 229.691 159.7C231.091 161.033 231.791 162.667 231.791 164.6C231.791 166.533 231.091 168.2 229.691 169.6C228.358 170.933 226.725 171.6 224.791 171.6C222.858 171.6 221.191 170.933 219.791 169.6C218.458 168.2 217.791 166.533 217.791 164.6ZM203.591 221.8H220.991V186.6H205.391V179.4H228.791V221.8H244.991V229H203.591V221.8Z" fill="black"/>
</svg>
