<?xml version="1.0" standalone="no"?>
<!DOCTYPE svg PUBLIC "-//W3C//DTD SVG 20010904//EN"
 "http://www.w3.org/TR/2001/REC-SVG-20010904/DTD/svg10.dtd">
<svg version="1.0" xmlns="http://www.w3.org/2000/svg"
 width="1290.000000pt" height="1290.000000pt" viewBox="0 0 1290.000000 1290.000000"
 preserveAspectRatio="xMidYMid meet">
<metadata>
Created by potrace 1.14, written by Peter Selinger 2001-2017
</metadata>
<g transform="translate(0.000000,1290.000000) scale(0.100000,-0.100000)"
fill="#000000" stroke="none">
<path d="M2159 12896 c-2 -2 -33 -7 -69 -10 -710 -71 -1372 -490 -1745 -1105
-68 -112 -134 -242 -173 -343 -16 -40 -33 -82 -37 -93 -5 -11 -9 -22 -10 -25
-1 -3 -12 -38 -24 -79 -13 -41 -34 -122 -47 -180 -56 -250 -53 29 -51 -4641 2
-2368 6 -4321 9 -4340 4 -19 10 -55 13 -80 20 -160 78 -372 151 -549 245 -596
718 -1058 1327 -1296 106 -41 277 -92 340 -101 16 -2 32 -6 36 -8 4 -3 30 -8
57 -12 27 -3 58 -8 69 -10 11 -3 54 -8 95 -12 105 -10 8617 -9 8715 1 202 21
495 98 673 178 333 150 605 349 837 613 32 37 66 77 74 89 8 12 18 24 21 27
17 13 154 225 197 305 143 264 236 563 271 865 9 85 9 8601 0 8705 -56 600
-361 1170 -839 1570 -297 248 -705 436 -1084 500 -49 8 -108 18 -130 22 -40 7
-8668 16 -8676 9z"/>
</g>
</svg>
